M48
INCH,LZ
VER,1
FMAT,2
T01C0.024F1B1S6H2000
T02C0.035F1B1S6H2000
T03C0.047F1B1S6H2000
T04C0.055F1B1S6H2000
T05C0.067F1B1S6H2000
T06C0.138F1B1S6H2000
T07C0.138F1B1S6H2000
T08C0.173F1B1S6H2000
DETECT,ON
ATC,ON
%
T01
X0146Y028596
X0134Y067546
X0146Y0765
X0164Y048546
X0184Y028596
X01975Y036304
X0201Y037355
X0185Y04425
Y067696
X0225Y016755
X02325Y016405
X02175Y017105
X0233Y03803
X0236Y04885
X02275
X02175Y057955
X02165Y068521
X0214Y07565
X026Y0395
X02525
X0244Y04885
X0285Y022
X0295Y037375
X029Y037724
X0285Y038074
X028Y038425
X02748Y06749
X03075Y058455
X032405Y058105
X0315Y0581
X03075Y05775
X03515Y016055
X03415Y015796
X03515Y06945
X03446Y07038
X03715Y016754
X03815Y017105
X0374Y033505
X0376Y087446
X041Y036696
X0414Y05596
X0411Y088671
X0445Y05846
X043Y05745
X04335Y07565
X046Y039455
X0466Y05645
X0469Y067946
X05Y028696
X04975Y03141
X05025Y034905
X0504Y036305
X0496Y038405
X04955Y06753
X05016Y067946
X04833Y087846
X0491Y0888
X05325Y0225
X05275Y028696
X05315Y03635
X0559Y037005
X0554Y0675
X0546
X05915Y016055
Y037046
X0576Y05535
X05839Y087746
X05965Y088955
X06115Y016754
X06215Y017105
X0618Y034555
X0601Y037705
X0626Y03808
Y055
X06185Y070146
X0614Y07575
X06475Y032455
X0639Y038405
X06405Y05305
X0656Y070996
X0634
X0639Y075655
X06775Y02875
X0669Y049547
X06725Y07969
X06975Y01573
Y02875
X0694Y034905
X07075Y049546
X06985Y05465
X0701Y069546
X07105Y0699
X07425Y02625
X0735Y049546
X0729Y0527
X0724Y0699
X074Y0785
X0774Y016755
X076Y04425
X0774Y043
X0765Y0655
X07735Y070746
X0761Y073655
X0771Y081155
X08025Y01645
X0795Y01575
X079Y035255
X07975Y034905
X0805Y04375
X0795Y0445
X0786Y056355
X07935Y0555
X0799Y075255
X08315Y034205
X0815Y043
X08335Y0703
X08175Y071055
X0826Y073655
X0819Y087746
X0866Y01715
X08515Y0346
X086Y03492
X08585Y067546
X08465Y068746
X0896Y018505
X08875Y03245
X088Y032455
X0895Y03245
Y033546
X088Y035255
X08875Y05745
X0884Y067546
X08846Y074055
X08842Y076455
X0896Y07545
X0905Y0175
X0903Y0335
X09175Y043696
X0916Y08625
X0934Y071046
X0955Y087346
X0964Y016054
X0979Y05448
X0976Y075655
X09655Y08855
X1011Y055655
X09935Y05528
X1014Y076455
X10075Y076055
X1044Y016405
X10335Y056005
X1026Y067526
X1039Y0679
X1075Y01925
Y04025
X10535Y06845
X1106Y030546
X1094Y056355
X1124Y016755
X1154Y07575
X115Y085546
X1158Y0863
X11495Y08805
Y092
X1175Y058455
X1195Y058146
X1181Y068546
X1204Y017104
X1205Y058455
X12175Y0835
X1235Y01925
Y04025
X12425Y056
X12525Y058
X1254Y067546
X1235Y06675
X1254Y086546
X1284Y017454
X1266Y029746
X1275Y03345
X1285Y0335
X12725Y056
X12825
X1274Y076455
X128Y086546
X1346Y029346
X1334Y035605
X1395Y01925
Y04025
X1426Y028946
X1414Y036305
X1459Y036655
X1494Y037005
X1521Y018504
X1506Y028546
X1536Y037355
X0146Y03915
X0157Y039105
X0197Y03915
X03233Y06909
X034927Y057096
X0343Y07495
X0374Y057055
X0365Y078305
X04115Y018155
X04015Y017805
X041002Y056712
X04125Y05453
X0469Y033155
X0475Y03597
X0454Y03915
X05185Y036
X0529Y038754
X05735Y03913
X06125Y050955
X06515Y018155
X06415Y017805
X065Y054155
X0678Y03283
X06755Y038755
X07025Y039105
X0734Y05709
X07375Y074855
X0765Y05375
X0785Y04525
X0804Y056705
X0806Y07494
X08172Y018155
X0824Y01785
X08507Y074855
X09175Y044696
Y054
X09075Y081305
X09375Y054
X1044Y056705
X1164Y08675
X1186Y030146
X119Y05686
X12115
X1364Y017805
X1376Y035955
X02402Y016055
X015Y017105
X01775Y028954
X018Y0382
X0242Y036696
X0209Y039454
X021Y058305
X0179Y0761
X03615Y016405
X03315Y01575
X027Y039455
X0359Y06945
X036Y0874
X039151Y017454
X04215Y01849
X0481Y03563
X04485Y037355
X04825Y0585
X04525Y058196
Y06797
X039Y08875
X06015Y016404
X06025Y0287
X05425Y031755
X0509Y038096
X05675Y039455
X0601Y076055
X06Y08169
X06315Y017454
X06615Y018505
X07225Y039455
X06275Y049546
X0661
X0659Y074455
X0629Y076055
X07475Y015735
X08375Y02
X084Y0287
X081Y031755
X07475Y088646
X087Y03495
X0871Y068
X09025
X1049Y0679
X0991Y074446
X12925Y06783
Y0725
X03Y05709
X04515Y036
X042Y05411
X03875Y068696
X04475Y078305
X0721Y0571
X09275Y054
X1141Y083905
X1441Y018155
T02
X0535Y0915
Y0945
Y0975
X0545Y0915
X0555
X0565
X0545Y0945
X0555
X0565
X0545Y0975
X0555
X0565
X0575Y0915
X0585
X0595
X0575Y0945
X0585
X0595
X0575Y0975
X0585
X0595
X0605Y0915
X0615
X0625
X0605Y0945
X0615
X0625
X0605Y0975
X0615
X0625
X0635Y0915
X0645
X0655
X0635Y0945
X0645
X0655
X0635Y0975
X0645
X0655
X0665Y0915
X0675
X0685
X0665Y0945
X0675
X0685
X0665Y0975
X0675
X0685
X0695Y0915
X0705
X0715
X0695Y0945
X0705
X0715
X0695Y0975
X0705
X0715
X0725Y0915
X0735
X0745
X0725Y0945
X0735
X0745
X0725Y0975
X0735
X0745
X077Y05
X076
Y052
X077
X0755Y0915
X0765
X0775
X0755Y0945
X0765
X0775
X0755Y0975
X0765
X0775
X08Y05
X079
X0785Y0915
X0795
X0805
X0785Y0945
X0795
X0805
X0785Y0975
X0795
X0805
X083Y05
X082
X083Y052
X0815
Y0915
X0825
X0835
X0815Y0945
X0825
X0835
X0815Y0975
X0825
X0835
X086Y05
X085
X0845Y052
Y0915
X0855
X0865
X0845Y0945
X0855
X0865
X0845Y0975
X0855
X0865
X089Y05
X088
X0875Y0915
X0885
X0895
X0875Y0945
X0885
X0895
X0875Y0975
X0885
X0895
X091Y05
Y052
X0905Y0915
X0915
X0925
X0905Y0945
X0915
X0925
X0905Y0975
X0915
X0925
X0935Y0915
X0945
X0955
X0935Y0945
X0945
X0955
X0935Y0975
X0945
X0955
X0965Y0915
X0975
X0985
X0965Y0945
X0975
X0985
X0965Y0975
X0975
X0985
X0995Y0915
X1005
X1015
X0995Y0945
X1005
X1015
X0995Y0975
X1005
X1015
X1025Y0915
X1035
X1045
X1025Y0945
X1035
X1045
X1025Y0975
X1035
X1045
X0285Y044
Y041
X031Y09575
X0315Y095
X032Y09575
X035Y04025
Y04425
X0435Y07825
Y08225
X0525Y0235
Y0195
X07125Y015
X10025Y066
Y063
X1065Y0825
Y0795
X12375Y07825
Y08225
X03425Y048
Y045
X083Y06575
Y06175
X01525Y089
X01575Y08825
X01625Y089
X022Y092
X025
X03
X033
X0295Y0935
X0335
X0295Y098
X0335
X038Y092
X041
X046
X049
X07125Y01375
X07675
X084Y05
X081
X078
X09
X087
X09Y052
X1015Y08875
X1055
X1015Y08775
X1055
X117Y05
X114
X13Y0555
X122
X017Y085
Y083
Y082
Y08
Y079
X014Y085
Y083
Y082
Y079
Y08
X017Y084
Y081
Y078
X014Y084
Y081
Y078
X023Y09575
X0235Y095
X024Y09575
X015086Y09175
X0165
X015793Y092457
X0225Y087
X0185
X033Y048
Y046
Y045
Y043
Y042
X03Y048
Y046
Y045
Y042
Y043
X033Y047
Y044
Y041
X03Y047
Y044
Y041
X0275Y04025
Y04425
X026Y09575
X029
X041Y048
Y046
Y045
Y043
Y042
X038Y048
Y046
Y045
Y042
Y043
X041Y047
Y044
Y041
X038Y047
Y044
Y041
X041Y08
Y079
X038
Y08
X041Y081
Y078
X038Y081
Y078
X0425Y08225
Y07825
X039Y09575
X0395Y095
X04Y09575
X042
X045
X047
X0475Y095
X048Y09575
X057Y048
Y046
Y045
Y043
Y042
X054Y048
Y046
Y045
Y042
Y043
X057Y047
Y044
Y041
X054Y047
Y044
Y041
X057Y085
Y083
Y082
Y08
Y079
X054Y085
Y083
Y082
Y079
Y08
X057Y084
Y081
Y078
X054Y084
Y081
Y078
X0515Y07825
Y08225
X0505
Y07825
X065Y048
Y046
Y045
Y043
Y042
X062Y048
Y046
Y045
Y042
Y043
X065Y047
Y044
Y041
X062Y047
Y044
Y041
X065Y085
Y083
Y082
Y08
Y079
X062Y085
Y083
Y082
Y079
Y08
X065Y084
Y081
Y078
X062Y084
Y081
Y078
X07675Y015
X0755Y04525
Y04225
Y083
Y08
X081Y085
Y083
Y082
Y08
Y079
X078Y085
Y083
Y082
Y079
Y08
X081Y084
Y081
Y078
X078Y084
Y081
Y078
X09125Y066
Y063
X0925Y06825
Y06525
X089Y083
Y082
Y08
Y079
X086Y083
Y082
Y08
Y079
X089Y084
Y081
Y078
X086Y081
Y084
Y078
X1075Y04875
Y046
X105Y048
Y046
Y045
Y043
Y042
X102Y048
Y046
Y045
Y042
Y043
X105Y047
Y044
Y041
X102Y047
Y044
Y041
X09875Y06825
Y06525
X105Y083
Y082
Y08
Y079
X102Y083
Y082
Y08
Y079
X105Y084
Y081
Y078
X102Y081
Y084
Y078
X10775Y08225
Y07825
X105Y08975
X102
X113Y048
Y046
Y045
Y043
Y042
X11Y048
Y046
Y045
Y042
Y043
X113Y047
Y044
Y041
X11Y047
Y044
Y041
X1235Y04875
Y046
X129Y048
Y046
Y045
Y043
Y042
X126Y048
Y046
Y045
Y042
Y043
X129Y047
Y044
Y041
X126Y047
Y044
Y041
X132Y08275
Y07975
X129Y085
Y083
Y082
Y08
Y079
X126Y085
Y083
Y082
Y079
Y08
X129Y084
Y081
Y078
X126Y084
Y081
Y078
X12275Y08225
Y07825
X1395Y04875
Y046
X137Y048
Y046
Y045
Y043
Y042
X134Y048
Y046
Y045
Y042
Y043
X137Y047
Y044
Y041
X134Y047
Y044
Y041
X15475Y04875
Y046
X153Y048
Y046
Y045
Y043
Y042
X15Y048
Y046
Y045
Y042
Y043
X153Y047
Y044
Y041
X15Y047
Y044
Y041
X014Y021
X017Y065
Y064
Y062
Y061
X014Y065
Y064
Y062
Y061
X017Y066
Y063
Y06
X014Y063
Y066
Y06
X033Y067
Y065
Y064
Y062
Y061
X03Y067
Y065
Y064
Y061
Y062
X033Y066
Y063
Y06
X03Y066
Y063
Y06
X041Y084
Y083
X038
Y084
X041Y085
Y082
X038Y085
Y082
X041Y067
Y065
Y064
Y062
Y061
X038Y067
Y065
Y064
Y061
Y062
X041Y066
Y063
Y06
X038Y066
Y063
Y06
X057Y065
Y064
Y062
Y061
X054Y065
Y064
Y062
Y061
X057Y066
Y063
Y06
X054Y063
Y066
Y06
X065Y067
Y065
Y064
Y062
Y061
X062Y067
Y065
Y064
Y061
Y062
X065Y066
Y063
Y06
X062Y066
Y063
Y06
X0755Y025
Y022
X081Y027
Y025
Y024
Y022
Y021
X078Y027
Y025
Y024
Y021
Y022
X081Y026
Y023
Y02
X078Y026
Y023
Y02
X0755Y0645
Y0615
X081Y065
Y064
Y062
Y061
X078Y065
Y064
Y062
Y061
X081Y066
Y063
Y06
X078Y063
Y066
Y06
X089Y027
Y025
Y024
Y022
Y021
X086Y027
Y025
Y024
Y021
Y022
X089Y026
Y023
Y02
X086Y026
Y023
Y02
X089Y065
Y064
Y062
Y061
X086Y065
Y064
Y062
Y061
X089Y066
Y063
Y06
X086Y063
Y066
Y06
X1075Y02775
Y025
X105Y027
Y025
Y024
Y022
Y021
X102Y027
Y025
Y024
Y021
Y022
X105Y026
Y023
Y02
X102Y026
Y023
Y02
X105Y065
Y064
Y062
Y061
X102Y065
Y064
Y062
Y061
X105Y066
Y063
Y06
X102Y063
Y066
Y06
X09875Y064
Y06
X113Y027
Y025
Y024
Y022
Y021
X11Y027
Y025
Y024
Y021
Y022
X113Y026
Y023
Y02
X11Y026
Y023
Y02
X113Y067
Y065
Y064
Y062
Y061
X11Y067
Y065
Y064
Y061
Y062
X113Y066
Y063
Y06
X11Y066
Y063
Y06
X1235Y02775
Y025
X129Y027
Y025
Y024
Y022
Y021
X126Y027
Y025
Y024
Y021
Y022
X129Y026
Y023
Y02
X126Y026
Y023
Y02
X132Y064
Y061
X1395Y02775
Y025
X137Y027
Y025
Y024
Y022
Y021
X134Y027
Y025
Y024
Y021
Y022
X137Y026
Y023
Y02
X134Y026
Y023
Y02
X1355Y0845
Y0925
X15475Y02775
Y025
X153Y027
Y025
Y024
Y022
Y021
X15Y027
Y025
Y024
Y021
Y022
X153Y026
Y023
Y02
X15Y026
Y023
Y02
X0215Y0615
X0255
X0215Y0645
X0255
X0455Y0935
X0495
X0375
X0415
X0215
X0255
X0455Y098
X0495
X0415
X0375
X0255
X0215
X0715Y02875
X0755
X0715Y03075
X0755
X129Y0735
X125
X1095Y07625
X1135
X049Y048
Y046
Y045
Y043
Y042
X046Y048
Y046
Y045
Y042
Y043
X049Y047
Y044
Y041
X046Y047
Y044
Y041
X0215Y0605
X0255
X0215Y0625
X0255
X0215Y0655
X0255
X0215Y0635
X0255
X049Y08
Y079
X046
Y08
X049Y081
Y078
X046Y081
Y078
X01775Y087
X01375
X0715Y02975
X0755
X073Y048
Y046
Y045
Y043
Y042
X07Y048
Y046
Y045
Y042
Y043
X073Y047
Y044
Y041
X07Y047
Y044
Y041
X097Y048
Y046
Y045
Y043
Y042
X094Y048
Y046
Y045
Y042
Y043
X097Y047
Y044
Y041
X094Y047
Y044
Y041
X078Y0475
X079
X081
X082
X084
X085
X087
X088
X079Y0415
X078
X082
X081
X085
X084
X088
X087
X08Y0475
X083
X086
X08898
X08Y0415
X086
X089
X083
X097Y066
Y065
X094
Y066
X097Y067
Y064
X094Y067
Y064
X073Y085
Y083
Y082
Y08
Y079
X07Y085
Y083
Y082
Y079
Y08
X073Y084
Y081
Y078
X07Y084
Y081
Y078
X097Y085
Y083
Y082
Y08
Y079
X094Y085
Y083
Y082
Y079
Y08
X097Y084
Y081
Y078
X094Y084
Y081
Y078
X121Y048
Y046
Y045
Y043
Y042
X118Y048
Y046
Y045
Y042
Y043
X121Y047
Y044
Y041
X118Y047
Y044
Y041
X145Y048
Y046
Y045
Y043
Y042
X142Y048
Y046
Y045
Y042
Y043
X145Y047
Y044
Y041
X142Y047
Y044
Y041
X122Y058
X13
X121Y08
Y079
X118
Y08
X121Y081
Y078
X118Y081
Y078
X1075Y0835
X1155
X129Y0745
X125
X129Y0755
X125
X1105Y088
X1085
X13
X118
X03Y0265
X032
X033
X035
X036
X038
X039
X041
X042
X044
X045
X047
X048
X03Y0205
X032
X033
X035
X036
X038
X039
X041
X042
X044
X045
X047
X048
X031Y0265
X034
X037
X04
X043
X046
X031Y0205
X034
X037
X04
X043
X046
X049
X025Y027
Y025
Y024
Y022
Y021
X022Y027
Y025
Y024
Y021
Y022
X025Y026
Y023
X022Y026
Y023
Y02
X049Y084
Y083
X046
Y084
X049Y085
Y082
X046Y085
Y082
X049Y065
Y064
Y062
Y061
X046Y065
Y064
Y062
Y061
X049Y066
Y063
Y06
X046Y063
Y066
Y06
X097Y027
Y025
Y024
Y022
Y021
X094Y027
Y025
Y024
Y021
Y022
X097Y026
Y023
Y02
X094Y026
Y023
Y02
X073Y065
Y064
Y062
Y061
X07Y065
Y064
Y062
Y061
X073Y066
Y063
Y06
X07Y063
Y066
Y06
X097Y062
Y061
X094
Y062
X097Y063
Y06
X094Y063
Y06
X084Y06575
Y06175
X121Y027
Y025
Y024
Y022
Y021
X118Y027
Y025
Y024
Y021
Y022
X121Y026
Y023
Y02
X118Y026
Y023
Y02
X145Y027
Y025
Y024
Y022
Y021
X142Y027
Y025
Y024
Y021
Y022
X145Y026
Y023
Y02
X142Y026
Y023
Y02
X121Y084
Y083
X118
Y084
X121Y085
Y082
X118Y085
Y082
X121Y067
Y065
Y064
Y062
Y061
X118Y067
Y065
Y064
Y061
Y062
X121Y066
Y063
Y06
X118Y066
Y063
Y06
X129Y065
Y064
Y062
Y061
X126Y065
Y064
Y062
Y061
X129Y066
Y063
Y06
X126Y063
Y066
Y06
X054Y0265
X056
X057
X059
X06
X062
X063
X065
X066
X068
X069
X071
X072
X054Y0205
X056
X057
X059
X06
X062
X063
X065
X066
X068
X069
X071
X072
X055Y0265
X058
X061
X064
X067
X07
X073
X055Y0205
X058
X061
X064
X067
X07
X073
X014Y02
X0525Y0945
X0515
X0525Y0915
X0515
X0525Y0975
X0515
X014Y022
Y023
X017Y02
Y021
Y022
Y023
X014Y024
Y025
X017Y024
Y025
X014Y026
X017
X014Y027
X017
X022Y041
Y042
Y043
X025
Y042
Y041
X022Y044
Y045
X025Y044
Y045
Y046
X022
X025Y047
X022
X017Y041
X014
Y042
X017
X014Y043
X017
X014Y044
X017
X014Y045
Y046
Y047
X017
Y046
Y045
X11Y078
Y079
X113
Y078
X11Y08
Y081
X113
Y08
X022Y0785
X023
X024
X025
X026
X027
X028
X029
X03
X031
X032
X033
X022Y0845
X023
X024
X025
X026
X027
X028
X029
X03
X031
X032
X033
X025Y02
X048988Y026498
T03
X136Y07475
Y07875
X143Y07475
Y07875
X13825Y083
X14075
X1395
X14075Y0885
X13825
X1395
X14075Y0945
X13825
X1395
X13825Y07875
Y07475
X14075Y07875
Y07475
X1605Y049181
Y05074
Y046063
Y047622
Y042945
Y044504
Y041386
Y038268
Y03515
Y032031
Y028913
Y025795
Y022677
Y019559
Y039827
Y036709
Y033591
Y030472
Y027354
Y024236
Y021118
Y018
X159098Y049181
Y05074
Y046063
Y047622
Y042945
Y044504
Y041386
Y038268
Y03515
Y032031
Y028913
Y025795
Y022677
Y019559
Y039827
Y036709
Y033591
Y030472
Y027354
Y024236
Y021118
Y018
T04
X1075Y094
X1345
X135Y055
X157
X1575Y065
X1355
X154475Y089985
X157515Y093025
T05
X149Y07475
Y07875
X1635Y064455
Y066014
Y067573
Y069132
Y07225
Y070691
X019177Y0975
X017618
X0145
X016059
X1535Y07875
Y07475
X1625
Y07875
X158
Y07475
T06
X096Y051
X012Y013
X156
T07
X012Y099
X144Y097
T08
X152303Y095197
X160697Y086803
M30
